<?xml version="1.0" standalone="no"?>
<!DOCTYPE svg PUBLIC "-//W3C//DTD SVG 20010904//EN"
 "http://www.w3.org/TR/2001/REC-SVG-20010904/DTD/svg10.dtd">
<svg version="1.0" xmlns="http://www.w3.org/2000/svg"
 width="431.000000pt" height="413.000000pt" viewBox="0 0 431.000000 413.000000"
 preserveAspectRatio="xMidYMid meet">
<metadata>
Created by potrace 1.15, written by Peter Selinger 2001-2017
</metadata>
<g transform="translate(0.000000,413.000000) scale(0.100000,-0.100000)"
fill="#000000" stroke="none">
<path d="M2630 4124 c-480 -45 -870 -196 -1224 -474 -356 -280 -588 -610 -701
-996 -50 -174 -66 -299 -75 -609 -10 -320 -32 -513 -84 -745 -15 -70 -14 -306
2 -322 7 -7 12 -21 12 -32 0 -20 21 -87 30 -96 3 -3 16 -29 30 -57 14 -30 32
-53 41 -53 17 0 53 -35 62 -62 3 -9 19 -25 34 -35 15 -10 31 -22 35 -28 5 -6
8 -5 8 3 0 19 28 14 39 -6 10 -20 71 -42 113 -42 14 0 38 -10 53 -22 24 -19
39 -22 117 -20 61 1 87 -2 82 -10 -11 -17 216 -2 366 26 249 45 377 57 715 66
334 9 395 16 583 61 277 66 632 243 910 451 50 38 92 75 92 81 -1 29 -30 44
-120 60 -327 60 -641 80 -793 51 -15 -3 -25 -9 -22 -14 3 -4 -5 -10 -16 -13
-12 -3 -18 -10 -14 -16 3 -7 -2 -11 -14 -11 -11 0 -50 -26 -88 -57 -88 -75
-142 -117 -170 -132 -13 -6 -23 -17 -23 -24 0 -7 -21 -24 -46 -37 -25 -14 -50
-33 -55 -42 -5 -10 -16 -18 -24 -18 -18 0 -73 -30 -104 -57 -14 -12 -38 -25
-53 -28 -15 -4 -30 -11 -34 -16 -9 -16 -142 -79 -166 -80 -22 0 -22 -1 -3 -9
45 -19 -52 -9 -140 14 -171 46 -357 141 -465 239 -72 65 -71 68 10 66 19 0 58
6 85 14 95 28 240 75 343 111 196 68 396 116 669 161 382 63 569 119 808 240
477 241 726 541 812 980 25 128 24 436 -1 555 -108 504 -508 862 -1075 961
-113 20 -429 33 -541 23z m-990 -457 c-8 -8 -71 -59 -140 -114 -400 -322 -631
-693 -705 -1133 -31 -181 -31 -461 0 -650 l5 -35 -15 40 c-51 130 -59 483 -16
710 85 453 342 822 794 1137 81 57 105 70 77 45z m1693 -274 c29 -9 63 -23 75
-31 20 -13 25 -13 33 -1 12 20 11 2 -2 -22 -9 -17 -8 -20 8 -19 10 1 27 1 38
0 15 -1 13 -4 -9 -10 -16 -5 -34 -6 -39 -3 -6 3 -7 1 -3 -6 4 -6 16 -9 27 -6
11 4 29 -1 41 -11 19 -14 20 -15 4 -10 -19 7 -19 6 -1 -14 10 -11 22 -20 27
-20 10 0 38 -25 38 -34 0 -3 -23 10 -50 30 -101 72 -245 93 -372 54 -51 -16
-75 -30 -117 -72 -29 -29 -67 -76 -86 -104 -19 -28 -41 -56 -49 -63 -14 -12
-16 -10 -16 15 0 67 -39 162 -89 219 -17 19 -19 24 -6 15 18 -14 19 -14 6 2
-7 10 -17 16 -21 13 -4 -3 -28 7 -52 21 -23 14 -32 22 -19 19 16 -5 21 -4 16
4 -5 9 10 11 52 10 32 -1 85 3 118 10 33 7 71 12 83 12 13 -1 31 3 40 9 30 17
267 12 325 -7z m-825 -107 c52 -27 65 -51 58 -103 -8 -59 -37 -120 -214 -455
-76 -144 -228 -432 -337 -638 -109 -206 -220 -411 -246 -456 -45 -75 -53 -83
-106 -107 -32 -14 -78 -28 -103 -31 l-45 -6 45 13 c113 34 126 49 252 287 606
1144 705 1337 722 1412 9 40 -29 79 -85 88 l-44 7 38 2 c21 0 50 -5 65 -13z
m767 -55 c40 -25 75 -59 76 -74 6 -84 -25 -198 -103 -370 -98 -219 -209 -418
-340 -614 -81 -120 -117 -143 -226 -149 l-67 -3 55 8 c60 9 106 29 131 57 9
11 48 66 87 125 202 303 432 792 432 919 0 48 -30 86 -85 105 -32 11 -35 14
-15 15 14 0 39 -9 55 -19z m-1195 -148 c0 -1 -20 -33 -45 -70 -67 -100 -92
-157 -129 -305 -19 -73 -53 -194 -77 -268 -23 -74 -44 -153 -47 -174 l-4 -40
33 28 c19 16 41 40 50 53 9 13 48 57 88 97 39 40 71 79 71 86 0 7 7 10 15 6 9
-3 15 0 15 9 0 8 5 15 10 15 6 0 10 -3 10 -6 0 -28 -304 -542 -430 -729 -45
-66 -98 -146 -118 -177 -24 -37 -46 -59 -63 -63 -26 -6 -53 -34 -141 -149 -29
-38 -58 -71 -65 -73 -26 -9 -109 187 -149 351 -29 118 -41 303 -23 351 26 68
34 85 41 85 3 0 12 15 18 34 6 19 17 37 25 40 8 3 15 12 15 21 0 8 4 15 8 15
4 0 16 15 27 33 10 17 34 48 52 67 18 19 33 38 33 41 0 3 11 18 25 33 14 15
25 32 25 37 0 6 4 8 9 5 5 -3 18 10 30 29 11 19 25 35 30 35 5 0 19 16 31 35
12 19 28 35 35 35 8 0 19 16 26 35 8 22 20 35 30 35 10 0 30 16 45 36 16 20
39 40 52 45 13 5 26 18 29 29 3 11 13 20 22 20 10 0 30 18 47 40 16 22 33 40
37 40 10 0 81 58 134 107 19 18 38 32 41 32 19 -3 25 2 12 10 -9 7 -2 9 23 7
29 -3 35 0 27 9 -12 14 -3 45 12 45 6 0 8 6 5 13 -3 9 4 13 24 13 16 0 29 -1
29 -3z m990 -1163 c11 -7 7 -10 -20 -11 -19 -1 -27 -3 -17 -6 15 -4 11 -10
-19 -34 -20 -16 -41 -29 -45 -29 -5 0 -9 -7 -9 -15 0 -8 -4 -15 -10 -15 -5 0
-20 -10 -33 -22 -24 -24 -94 -83 -112 -96 -21 -15 -128 -87 -144 -97 -9 -5
-31 -20 -48 -32 -17 -13 -35 -23 -40 -23 -4 0 -26 -14 -47 -30 -22 -17 -46
-30 -53 -30 -8 0 -11 -4 -8 -10 7 -11 -204 -12 -245 -1 -37 10 -36 39 5 129
33 71 42 83 85 106 110 60 617 223 653 211 7 -2 28 0 47 4 19 5 37 9 40 10 3
0 12 -4 20 -9z"/>
</g>
</svg>
